# Blender v2.79 (sub 0) OBJ File: ''
# www.blender.org

vt 0.0 0.0
vt 0.0 1.0
vt 1.0 0.0
vt 1.0 1.0

mtllib box.mtl
o Cube.005
v 1.000000 -1.000000 -1.000000
v 1.000000 -1.000000 1.000000
v 1.000000 1.000000 -0.999999
v 0.999999 1.000000 1.000001
vn 1.0000 0.0000 0.0000
usemtl Material
s off
f 1/1/1 3/2/1 4/3/1 2/4/1
o Cube.004
v 1.000000 -1.000000 -1.000000
v 1.000000 -1.000000 1.000000
v -1.000000 -1.000000 -1.000000
v -1.000000 -1.000000 1.000000
vn 0.0000 -1.0000 0.0000
usemtl Material
s off
f 5/1/2 6/2/2 8/3/2 7/4/2
o Cube.003
v -1.000000 -1.000000 1.000000
v -1.000000 1.000000 1.000000
v -1.000000 -1.000000 -1.000000
v -1.000000 1.000000 -1.000000
vn -1.0000 -0.0000 -0.0000
usemtl Material
s off
f 9/1/3 10/2/3 12/3/3 11/4/3
o Cube.002
v 1.000000 -1.000000 1.000000
v 0.999999 1.000000 1.000001
v -1.000000 -1.000000 1.000000
v -1.000000 1.000000 1.000000
vn -0.0000 -0.0000 1.0000
usemtl Material
s off
f 13/1/4 14/2/4 16/3/4 15/4/4
o Cube.001
v 1.000000 -1.000000 -1.000000
v -1.000000 -1.000000 -1.000000
v 1.000000 1.000000 -0.999999
v -1.000000 1.000000 -1.000000
vn 0.0000 0.0000 -1.0000
usemtl Material
s off
f 19/1/5 17/2/5 18/3/5 20/4/5
o Cube
v 1.000000 1.000000 -0.999999
v 0.999999 1.000000 1.000001
v -1.000000 1.000000 1.000000
v -1.000000 1.000000 -1.000000
vn 0.0000 1.0000 0.0000
usemtl Material
s off
f 21/1/6 24/2/6 23/3/6 22/1/6
